<?xml version="1.0" encoding="UTF-8" standalone="no"?>
<svg
   xmlns:dc="http://purl.org/dc/elements/1.1/"
   xmlns:cc="http://creativecommons.org/ns#"
   xmlns:rdf="http://www.w3.org/1999/02/22-rdf-syntax-ns#"
   xmlns:svg="http://www.w3.org/2000/svg"
   xmlns="http://www.w3.org/2000/svg"
   xmlns:sodipodi="http://sodipodi.sourceforge.net/DTD/sodipodi-0.dtd"
   xmlns:inkscape="http://www.inkscape.org/namespaces/inkscape"
   viewBox="0 0 324.2937 29.930138"
   width="100%"
   height="100%"
   version="1.1"
   inkscape:version="0.92.3 (unknown)"
   sodipodi:docname="logo.svg">
  <metadata
     id="metadata">
    <rdf:RDF>
      <cc:Work
         rdf:about="">
        <dc:format>image/svg+xml</dc:format>
        <dc:type
           rdf:resource="http://purl.org/dc/dcmitype/StillImage" />
      </cc:Work>
    </rdf:RDF>
  </metadata>
  <defs
     id="defs" />
  <sodipodi:namedview
     pagecolor="#ffffff"
     bordercolor="#666666"
     borderopacity="1"
     objecttolerance="10"
     gridtolerance="10"
     guidetolerance="10"
     inkscape:pageopacity="0"
     inkscape:pageshadow="2"
     inkscape:window-width="1366"
     inkscape:window-height="705"
     id="namedview"
     showgrid="false"
     inkscape:zoom="0.46322042"
     inkscape:cx="-191.62964"
     inkscape:cy="25.631607"
     inkscape:window-x="0"
     inkscape:window-y="30"
     inkscape:window-maximized="1" />
  <circle
     class="st0"
     cx="4.8000002"
     cy="24.930138"
     r="4.8000002"
     id="circle1"
     style="fill:#4a90e2" />
  <path
     class="st0"
     d="m 62,1.1301382 c -2.6,0 -4.8,2.1 -4.8,4.8 0,3.8 -0.6,4.7999998 -4.8,4.7999998 H 52 c -2.4,0.2 -4.3,2.2 -4.3,4.7 v 0.1 c 0,3.7 -0.7,4.6 -4.8,4.6 -0.2,0 -0.4,0 -0.5,0.1 -2.4,0.3 -4.3,2.3 -4.3,4.7 0,2.6 2.1,4.8 4.8,4.8 2.5,0 4.6,-2 4.7,-4.4 v -0.4 c 0,-3.4 1.1,-4.7 4.7,-4.8 h 0.1 c 2.5,0 4.6,-2 4.7,-4.5 v -0.3 c 0,-3.5 1.1,-4.8 4.8,-4.8 2.6,0 4.8,-2.0999998 4.8,-4.7999998 0,-2.5 -2.1,-4.6 -4.7,-4.6 z M 33.8,10.730138 h -0.4 c -4.2,0 -4.8,-0.9999998 -4.8,-4.7999998 0,-2.6 -2.1,-4.8 -4.8,-4.8 -2.6,0 -4.8,2.1 -4.8,4.8 0,3.8 -0.6,4.6999998 -4.8,4.6999998 h -0.4 c -2.4,0.2 -4.3,2.2 -4.3,4.7 0,2.6 2.1,4.8 4.8,4.8 2.5,0 4.6,-2 4.7,-4.4 v -0.3 c 0,-3.5 1.1,-4.8 4.8,-4.8 3.7,0 4.8,1.3 4.8,4.7 0,2.6 2.1,4.8 4.8,4.8 2.7,0 4.8,-2.1 4.8,-4.8 -0.1,-2.4 -2,-4.4 -4.4,-4.6 z"
     id="path1"
     inkscape:connector-curvature="0"
     style="fill:#4a90e2" />
  <path
     class="st1"
     d="m 109.3,0.8 c -0.3,0 -0.6,0.1 -0.8,0.4 -0.2,0.2 -0.3,0.5 -0.3,0.9 V 25 L 90.7,1.4 C 90.4,1 90.1,0.8 89.7,0.8 89.3,0.8 89,0.9 88.8,1.2 88.6,1.4 88.5,1.7 88.5,2.1 v 26 c 0,0.4 0.1,0.7 0.3,0.9 0.2,0.2 0.5,0.3 0.9,0.3 0.3,0 0.6,-0.1 0.8,-0.4 0.2,-0.2 0.3,-0.5 0.3,-0.9 V 5.2 l 17.5,23.6 c 0.3,0.4 0.7,0.6 1.1,0.6 0.4,0 0.7,-0.1 0.9,-0.4 0.2,-0.2 0.3,-0.5 0.3,-0.9 v -26 c 0,-0.4 -0.1,-0.7 -0.3,-0.9 -0.3,-0.3 -0.6,-0.4 -1,-0.4 z m 92,-0.8 c -8.1,0 -14.7,6.6 -14.7,14.7 0,8.1 6.6,14.7 14.7,14.7 8.1,0 14.7,-6.6 14.7,-14.7 C 216,6.6 209.4,0 201.3,0 Z m 0,27 C 194.5,27 189,21.5 189,14.7 c 0,-6.8 5.5,-12.3 12.3,-12.3 6.8,0 12.3,5.5 12.3,12.3 0,6.8 -5.5,12.3 -12.3,12.3 z M 177,0.8 c -0.3,0 -0.6,0.1 -0.8,0.4 -0.2,0.2 -0.3,0.5 -0.3,0.9 V 25 L 158.4,1.4 c -0.3,-0.4 -0.6,-0.6 -1,-0.6 -0.4,0 -0.7,0.1 -0.9,0.4 -0.2,0.2 -0.3,0.5 -0.3,0.9 v 26 c 0,0.4 0.1,0.7 0.3,0.9 0.2,0.2 0.5,0.3 0.9,0.3 0.3,0 0.6,-0.1 0.8,-0.4 0.2,-0.2 0.3,-0.5 0.3,-0.9 V 5.2 L 176,28.8 c 0.3,0.4 0.7,0.6 1.1,0.6 0.4,0 0.7,-0.1 0.9,-0.4 0.2,-0.2 0.3,-0.5 0.3,-0.9 v -26 c 0,-0.4 -0.1,-0.7 -0.3,-0.9 -0.3,-0.3 -0.6,-0.4 -1,-0.4 z m -42.3,0.8 c -0.1,-0.3 -0.3,-0.5 -0.5,-0.6 -0.3,-0.2 -0.5,-0.2 -0.8,-0.2 -0.6,0 -1.1,0.3 -1.3,0.9 l -11.7,26.2 c -0.1,0.1 -0.1,0.3 -0.1,0.4 0,0.3 0.1,0.6 0.3,0.8 0.2,0.2 0.5,0.3 0.8,0.3 0.5,0 0.9,-0.3 1.1,-0.8 l 3.1,-7 h 15.5 l 3,7 c 0.1,0.2 0.3,0.4 0.5,0.6 0.2,0.1 0.4,0.2 0.6,0.2 0.3,0 0.6,-0.1 0.8,-0.3 0.2,-0.2 0.4,-0.4 0.4,-0.7 0,-0.2 0,-0.3 -0.1,-0.5 z m -8.2,17.9 6.8,-15.5 6.8,15.5 z"
     id="path2"
     inkscape:connector-curvature="0"
     style="fill:#000034" />
  <path
     style="font-style:normal;font-weight:normal;font-size:40px;line-height:1.25;font-family:sans-serif;letter-spacing:0px;word-spacing:0px;fill:#000000;fill-opacity:1;stroke:none;stroke-width:1.01388228"
     d="m 257.35107,28.471439 c 0.0815,-5.525903 0.63622,-28.35666079 -3.05834,-12.978237 -1.23195,10.983171 -14.25501,12.320019 -12.89621,-0.738067 -7.63122,-15.9412255 -0.44175,7.469832 -6.43415,10.622357 -1.42232,-5.510155 -4.5108,-32.3404054 6.01337,-20.842763 -0.36589,8.049029 9.69059,24.311994 9.83124,7.099002 0.68055,-9.5958329 14.35273,-12.7897805 9.59335,-0.0014 -0.83796,4.91318 3.96187,15.224906 -3.04926,16.839098 z m 9.35547,-26.3414053 c -0.44708,-7.1089936 6.25255,2.5717187 0,0 z m 0,26.3414053 c 0,-7.241209 0,-14.482418 0,-21.7236284 5.07942,4.6190664 6.37965,17.8948544 0,21.7236284 z m 21.875,0 c 1.42909,-12.211382 -18.93453,3.934482 -9.88018,-7.220827 2.11256,-7.749839 -6.46603,-17.4917636 3.98072,-8.744081 4.74563,-1.367484 8.14645,-7.0556465 4.4393,2.245748 -7.43371,6.636666 10.00736,11.17973 1.46016,13.71916 z m 9.74609,-10.098877 c -5.20559,9.259396 20.50197,5.738293 6.80161,10.843957 -19.10403,0.979913 -8.80153,-35.2649174 6.02473,-19.3945496 6.65857,8.1335026 -7.75948,11.1706936 -12.82634,8.5505926 z m 11.44531,-2.770666 c 3.60441,-11.7697603 -19.42335,-0.977414 -4.86549,0.0259 l 2.43268,-0.04206 z m 8.20313,12.869543 c -2.60556,-6.619375 1.67906,-25.4664495 6.31762,-19.2082414 -5.9972,4.7357024 1.49124,16.5854554 -6.31762,19.2082414 z"
     id="path3"
     inkscape:connector-curvature="0" />
</svg>
