<?xml version="1.0" encoding="UTF-8" standalone="no"?>
<svg xmlns:rdf="http://www.w3.org/1999/02/22-rdf-syntax-ns#" xmlns="http://www.w3.org/2000/svg" height="100%" width="100%" version="1.1" xmlns:cc="http://creativecommons.org/ns#" xmlns:dc="http://purl.org/dc/elements/1.1/" viewBox="0 0 324.2937 29.930138"><metadata id="metadata"><rdf:RDF><cc:Work rdf:about=""><dc:format>image/svg+xml</dc:format><dc:type rdf:resource="http://purl.org/dc/dcmitype/StillImage"/><dc:title/></cc:Work></rdf:RDF></metadata><circle cy="24.93" cx="4.8" r="4.8" class="st0" fill="#4a90e2"/><path fill="#4a90e2" class="st0" d="m62 1.1301c-2.6 0-4.8 2.1-4.8 4.8 0 3.8-0.6 4.8-4.8 4.8h-0.4c-2.4 0.2-4.3 2.2-4.3 4.7v0.1c0 3.7-0.7 4.6-4.8 4.6-0.2 0-0.4 0-0.5 0.1-2.4 0.3-4.3 2.3-4.3 4.7 0 2.6 2.1 4.8 4.8 4.8 2.5 0 4.6-2 4.7-4.4v-0.4c0-3.4 1.1-4.7 4.7-4.8h0.1c2.5 0 4.6-2 4.7-4.5v-0.3c0-3.5 1.1-4.8 4.8-4.8 2.6 0 4.8-2.1 4.8-4.8 0-2.5-2.1-4.6-4.7-4.6zm-28.2 9.5999h-0.4c-4.2 0-4.8-1-4.8-4.8 0-2.6-2.1-4.8-4.8-4.8-2.6 0-4.8 2.1-4.8 4.8 0 3.8-0.6 4.7-4.8 4.7h-0.4c-2.4 0.2-4.3 2.2-4.3 4.7 0 2.6 2.1 4.8 4.8 4.8 2.5 0 4.6-2 4.7-4.4v-0.3c0-3.5 1.1-4.8 4.8-4.8s4.8 1.3 4.8 4.7c0 2.6 2.1 4.8 4.8 4.8s4.8-2.1 4.8-4.8c-0.1-2.4-2-4.4-4.4-4.6z"/><path fill="#000034" class="st1" d="m109.3 0.8c-0.3 0-0.6 0.1-0.8 0.4-0.2 0.2-0.3 0.5-0.3 0.9v22.9l-17.5-23.6c-0.3-0.4-0.6-0.6-1-0.6s-0.7 0.1-0.9 0.4c-0.2 0.2-0.3 0.5-0.3 0.9v26c0 0.4 0.1 0.7 0.3 0.9s0.5 0.3 0.9 0.3c0.3 0 0.6-0.1 0.8-0.4 0.2-0.2 0.3-0.5 0.3-0.9v-22.8l17.5 23.6c0.3 0.4 0.7 0.6 1.1 0.6s0.7-0.1 0.9-0.4c0.2-0.2 0.3-0.5 0.3-0.9v-26c0-0.4-0.1-0.7-0.3-0.9-0.3-0.3-0.6-0.4-1-0.4zm92-0.8c-8.1 0-14.7 6.6-14.7 14.7s6.6 14.7 14.7 14.7 14.7-6.6 14.7-14.7-6.6-14.7-14.7-14.7zm0 27c-6.8 0-12.3-5.5-12.3-12.3s5.5-12.3 12.3-12.3 12.3 5.5 12.3 12.3-5.5 12.3-12.3 12.3zm-24.3-26.2c-0.3 0-0.6 0.1-0.8 0.4-0.2 0.2-0.3 0.5-0.3 0.9v22.9l-17.5-23.6c-0.3-0.4-0.6-0.6-1-0.6s-0.7 0.1-0.9 0.4c-0.2 0.2-0.3 0.5-0.3 0.9v26c0 0.4 0.1 0.7 0.3 0.9s0.5 0.3 0.9 0.3c0.3 0 0.6-0.1 0.8-0.4 0.2-0.2 0.3-0.5 0.3-0.9v-22.8l17.5 23.6c0.3 0.4 0.7 0.6 1.1 0.6s0.7-0.1 0.9-0.4c0.2-0.2 0.3-0.5 0.3-0.9v-26c0-0.4-0.1-0.7-0.3-0.9-0.3-0.3-0.6-0.4-1-0.4zm-42.3 0.8c-0.1-0.3-0.3-0.5-0.5-0.6-0.3-0.2-0.5-0.2-0.8-0.2-0.6 0-1.1 0.3-1.3 0.9l-11.7 26.2c-0.1 0.1-0.1 0.3-0.1 0.4 0 0.3 0.1 0.6 0.3 0.8s0.5 0.3 0.8 0.3c0.5 0 0.9-0.3 1.1-0.8l3.1-7h15.5l3 7c0.1 0.2 0.3 0.4 0.5 0.6 0.2 0.1 0.4 0.2 0.6 0.2 0.3 0 0.6-0.1 0.8-0.3s0.4-0.4 0.4-0.7c0-0.2 0-0.3-0.1-0.5zm-8.2 17.9 6.8-15.5 6.8 15.5z"/><path d="m257.35 28.471c0.0815-5.5259 0.63622-28.357-3.0583-12.978-1.232 10.983-14.255 12.32-12.896-0.73807-7.6312-15.941-0.44175 7.4698-6.4342 10.622-1.4223-5.5102-4.5108-32.34 6.0134-20.843-0.36589 8.049 9.6906 24.312 9.8312 7.099 0.68055-9.5958 14.353-12.79 9.5934-0.0014-0.83796 4.9132 3.9619 15.225-3.0493 16.839zm9.3555-26.341c-0.44708-7.109 6.2526 2.5717 0 0zm0 26.341v-21.724c5.0794 4.6191 6.3796 17.895 0 21.724zm21.875 0c1.4291-12.211-18.935 3.9345-9.8802-7.2208 2.1126-7.7498-6.466-17.492 3.9807-8.7441 4.7456-1.3675 8.1464-7.0556 4.4393 2.2457-7.4337 6.6367 10.007 11.18 1.4602 13.719zm9.7461-10.099c-5.2056 9.2594 20.502 5.7383 6.8016 10.844-19.104 0.97991-8.8015-35.265 6.0247-19.395 6.6586 8.1335-7.7595 11.171-12.826 8.5506zm11.445-2.7707c3.6044-11.77-19.423-0.97741-4.8655 0.0259l2.4327-0.04206zm8.2031 12.87c-2.6056-6.6194 1.6791-25.466 6.3176-19.208-5.9972 4.7357 1.4912 16.585-6.3176 19.208z"/></svg>
